<?xml version="1.0" standalone="no"?>
<!DOCTYPE svg PUBLIC "-//W3C//DTD SVG 20010904//EN"
 "http://www.w3.org/TR/2001/REC-SVG-20010904/DTD/svg10.dtd">
<svg version="1.0" xmlns="http://www.w3.org/2000/svg"
 width="1000.000000pt" height="1000.000000pt" viewBox="0 0 1000.000000 1000.000000"
 preserveAspectRatio="xMidYMid meet">
<metadata>
Created by potrace 1.16, written by Peter Selinger 2001-2019
</metadata>
<g transform="translate(0.000000,1000.000000) scale(0.100000,-0.100000)"
fill="#000000" stroke="none">
<path d="M4924 8186 c-17 -7 -44 -31 -60 -52 -63 -82 -194 -320 -194 -353 0
-7 -13 -45 -29 -84 -38 -93 -78 -229 -87 -292 -3 -27 -10 -54 -14 -60 -11 -14
-11 -526 -1 -540 5 -5 16 -55 25 -109 10 -55 20 -104 24 -110 4 -6 7 -13 8
-16 0 -3 3 -12 7 -20 3 -8 11 -33 18 -55 12 -42 40 -107 93 -215 l32 -66 -42
-31 c-93 -70 -172 -203 -181 -303 l-6 -60 -51 -1 c-90 0 -416 -53 -426 -69 -3
-4 -22 -10 -44 -14 -21 -4 -50 -12 -65 -18 -14 -6 -28 -12 -31 -13 -3 -1 -18
-7 -33 -13 -15 -7 -39 -15 -52 -18 -14 -3 -25 -10 -25 -15 0 -5 -3 -8 -7 -7
-8 1 -82 -33 -148 -69 -28 -15 -118 -80 -195 -140 -87 -69 -229 -218 -306
-321 -46 -61 -84 -116 -84 -121 0 -5 -3 -11 -8 -13 -13 -5 -107 -170 -127
-220 -12 -33 -16 -64 -13 -103 4 -50 10 -61 45 -97 40 -40 42 -41 139 -50 106
-10 423 6 454 22 10 5 20 7 23 4 3 -3 13 -1 24 5 10 5 58 17 107 25 49 9 94
20 100 25 6 5 38 16 71 25 33 8 78 25 100 36 21 11 45 20 51 20 7 0 19 6 26
13 7 6 29 20 48 29 77 39 169 98 202 131 10 9 23 17 28 17 13 0 256 242 290
289 14 19 32 41 40 50 9 9 37 49 63 89 27 39 54 72 61 72 6 0 22 -7 34 -16
l22 -15 0 -1605 0 -1604 -400 0 -400 0 0 -165 0 -165 970 0 970 0 0 165 0 165
-400 0 -400 0 0 1604 0 1605 22 15 c12 9 28 16 34 16 7 0 34 -33 61 -72 26
-40 54 -80 63 -89 8 -9 26 -31 40 -50 33 -46 278 -289 290 -289 6 0 18 -8 28
-17 33 -33 125 -92 202 -131 19 -9 41 -23 48 -29 7 -7 19 -13 26 -13 6 0 30
-9 51 -20 22 -11 67 -28 100 -37 33 -9 65 -20 71 -24 11 -9 175 -47 226 -54
14 -1 31 -5 35 -8 22 -14 353 -28 447 -19 97 9 99 10 140 51 41 41 41 42 41
114 -1 75 -8 96 -65 192 -17 28 -38 65 -47 83 -9 17 -20 32 -25 32 -4 0 -8 4
-8 10 0 5 -34 56 -76 112 -73 99 -207 236 -319 328 -31 25 -65 53 -77 63 -11
9 -24 17 -28 17 -3 0 -15 8 -26 18 -10 10 -21 18 -24 19 -3 0 -21 10 -40 21
-19 12 -38 20 -41 19 -4 -1 -15 5 -25 14 -22 19 -112 61 -169 79 -22 7 -46 17
-52 23 -7 5 -13 6 -13 2 0 -4 -6 -3 -12 3 -7 5 -40 15 -73 22 -33 7 -64 15
-70 18 -32 20 -279 61 -371 61 l-51 1 -6 60 c-9 104 -92 236 -199 316 l-27 20
39 81 c71 148 133 325 151 428 6 39 15 75 20 80 10 14 10 533 -1 540 -4 3 -11
31 -15 62 -6 58 -21 124 -32 153 -3 8 -7 20 -8 25 0 6 -4 17 -7 25 -4 8 -12
33 -19 55 -7 22 -18 49 -24 60 -7 11 -16 31 -20 45 -19 69 -135 280 -199 364
-16 21 -44 45 -63 52 -41 18 -109 17 -149 0z m109 -543 c78 -178 108 -334 108
-563 1 -140 -17 -297 -38 -350 -4 -8 -7 -17 -8 -20 -1 -3 -4 -12 -8 -20 -3 -8
-13 -43 -23 -77 -9 -35 -20 -63 -24 -63 -4 0 -13 -20 -20 -45 -7 -25 -15 -45
-19 -45 -7 0 -68 153 -77 195 -4 17 -10 35 -15 40 -4 6 -7 12 -8 15 0 3 -2 12
-5 20 -3 8 -13 56 -22 105 -31 175 -13 532 31 630 8 17 21 54 29 82 17 60 58
153 67 153 3 0 18 -26 32 -57z m33 -1712 c54 -25 83 -74 79 -135 -5 -89 -58
-140 -145 -140 -25 0 -58 7 -74 15 -65 31 -93 140 -53 206 22 38 83 73 127 73
14 0 43 -9 66 -19z m-642 -463 c-53 -90 -261 -303 -357 -367 -34 -22 -71 -48
-81 -56 -11 -8 -35 -20 -53 -26 -18 -6 -33 -15 -33 -20 0 -5 -4 -9 -9 -9 -5 0
-26 -8 -47 -17 -22 -9 -41 -17 -44 -18 -3 -1 -12 -4 -20 -8 -8 -3 -42 -13 -75
-22 -33 -9 -69 -20 -80 -25 -26 -11 -141 -30 -186 -30 -19 0 -39 -4 -45 -10
-5 -5 -15 -6 -23 0 -12 7 -3 23 41 77 90 111 185 202 324 312 5 5 21 14 35 21
13 7 26 16 29 19 9 11 154 79 195 91 22 6 54 18 70 25 17 7 59 19 95 25 36 6
74 16 85 21 11 5 56 13 100 18 44 5 81 9 83 10 2 0 0 -5 -4 -11z m1336 -17
c14 -5 62 -17 108 -27 45 -9 82 -20 82 -24 0 -4 15 -10 33 -14 31 -6 207 -85
217 -97 3 -3 16 -12 29 -19 14 -7 30 -17 35 -21 6 -5 29 -23 51 -40 91 -70
199 -182 317 -328 15 -18 -8 -32 -36 -21 -12 4 -64 13 -116 20 -52 7 -99 15
-105 20 -5 4 -41 15 -80 25 -38 10 -76 23 -82 28 -7 5 -13 6 -13 2 0 -4 -6 -3
-12 2 -7 6 -30 16 -50 22 -21 7 -38 16 -38 21 0 5 -15 13 -33 19 -18 6 -42 18
-53 26 -10 8 -47 33 -80 56 -74 48 -206 176 -290 279 -33 41 -63 80 -67 85 -7
13 143 1 183 -14z" />
</g>
</svg>
