<?xml version="1.0" standalone="no"?>
<!DOCTYPE svg PUBLIC "-//W3C//DTD SVG 20010904//EN"
 "http://www.w3.org/TR/2001/REC-SVG-20010904/DTD/svg10.dtd">
<svg version="1.0" xmlns="http://www.w3.org/2000/svg"
 width="1000.000000pt" height="1000.000000pt" viewBox="0 0 1000.000000 1000.000000"
 preserveAspectRatio="xMidYMid meet">
<metadata>
Created by potrace 1.16, written by Peter Selinger 2001-2019
</metadata>
<g transform="translate(0.000000,1000.000000) scale(0.100000,-0.100000)"
fill="#000000" stroke="none">
<path d="M4313 7855 c-7 -8 -13 -18 -13 -22 -1 -10 -36 -53 -45 -53 -11 0 -54
-55 -55 -70 -1 -19 -35 -60 -49 -60 -6 0 -11 -7 -11 -15 0 -8 -4 -15 -10 -15
-5 0 -19 -20 -30 -44 -12 -24 -39 -61 -60 -82 -22 -22 -40 -44 -40 -50 0 -6
-20 -33 -45 -60 -24 -27 -45 -56 -45 -64 -1 -17 -34 -60 -47 -60 -9 0 -53 -65
-53 -79 0 -4 -16 -26 -35 -47 -19 -21 -35 -43 -35 -50 0 -7 -13 -26 -29 -42
-16 -16 -37 -44 -48 -63 -10 -19 -29 -46 -41 -59 -13 -14 -33 -44 -44 -67 -10
-22 -28 -49 -39 -59 -10 -9 -19 -21 -19 -26 0 -12 -42 -71 -57 -81 -7 -4 -13
-15 -13 -22 0 -8 -9 -24 -20 -35 -11 -11 -20 -27 -20 -35 0 -8 -4 -15 -10 -15
-5 0 -10 -6 -10 -13 0 -7 -9 -20 -20 -30 -11 -9 -20 -25 -20 -35 0 -10 -13
-33 -30 -52 -16 -19 -29 -43 -30 -52 0 -9 -6 -21 -13 -25 -8 -4 -20 -21 -29
-38 -58 -114 -70 -135 -79 -135 -5 0 -9 -11 -9 -25 0 -14 -5 -25 -10 -25 -6 0
-16 -12 -23 -27 -6 -16 -17 -34 -24 -41 -7 -7 -13 -22 -13 -33 0 -10 -7 -19
-15 -19 -9 0 -15 -9 -15 -24 0 -14 -6 -31 -13 -38 -8 -7 -17 -26 -21 -41 -3
-15 -11 -27 -16 -27 -5 0 -12 -15 -16 -34 -3 -19 -12 -37 -20 -40 -8 -3 -14
-18 -14 -34 0 -16 -7 -35 -15 -42 -8 -7 -15 -23 -15 -35 0 -12 -7 -28 -15 -35
-8 -7 -15 -23 -15 -36 0 -15 -6 -24 -15 -24 -8 0 -16 -8 -16 -17 -4 -48 -7
-64 -16 -75 -6 -7 -14 -28 -18 -46 -4 -18 -13 -36 -21 -39 -9 -3 -14 -20 -14
-43 0 -24 -5 -40 -15 -44 -10 -4 -15 -19 -15 -48 0 -31 -6 -48 -20 -61 -15
-12 -20 -29 -20 -62 0 -31 -5 -47 -15 -51 -11 -5 -15 -22 -15 -70 0 -50 -3
-64 -15 -64 -12 0 -15 -16 -15 -80 0 -47 -4 -80 -10 -80 -6 0 -10 -115 -10
-325 0 -210 4 -325 10 -325 6 0 10 -28 10 -64 0 -48 4 -65 15 -70 11 -4 15
-20 15 -56 0 -36 4 -52 15 -56 9 -4 15 -19 15 -40 0 -22 7 -40 20 -51 12 -11
20 -30 20 -50 0 -18 4 -33 9 -33 5 0 23 -28 40 -62 18 -35 43 -83 56 -108 14
-25 25 -50 25 -57 0 -7 4 -13 10 -13 5 0 18 -17 29 -37 11 -21 35 -56 55 -78
20 -22 36 -43 36 -47 0 -10 35 -52 93 -110 26 -26 47 -52 47 -58 0 -5 4 -10 9
-10 6 0 32 -21 58 -46 26 -25 63 -52 82 -61 19 -9 36 -25 39 -35 2 -10 10 -18
17 -18 7 0 18 -7 25 -15 7 -8 21 -15 31 -15 10 0 23 -9 29 -20 6 -11 17 -20
26 -20 8 0 17 -7 20 -15 4 -8 16 -15 29 -15 13 0 25 -7 29 -15 3 -9 18 -15 36
-15 20 0 30 -5 30 -15 0 -10 10 -15 30 -15 20 0 33 -7 41 -21 7 -14 17 -19 30
-16 12 3 27 -2 37 -13 10 -10 35 -20 57 -22 25 -2 39 -8 38 -15 -2 -9 13 -13
52 -13 37 0 57 -5 62 -15 6 -9 31 -16 76 -19 42 -3 73 -11 83 -21 22 -22 552
-23 560 -1 4 10 31 16 84 21 51 5 79 11 77 19 -1 7 18 12 51 14 37 2 52 7 52
18 0 10 12 14 45 14 32 0 45 4 45 14 0 17 22 26 48 19 14 -3 24 2 31 16 8 14
21 21 41 21 20 0 30 5 30 15 0 10 10 15 30 15 20 0 30 5 30 15 0 9 9 15 25 15
14 0 28 7 31 15 4 8 14 15 25 15 10 0 23 9 29 20 6 11 19 20 29 20 11 0 21 7
25 15 3 8 10 15 16 15 5 0 23 13 38 30 16 17 36 30 43 30 8 0 22 8 31 18 8 9
27 26 41 37 15 11 26 25 27 30 1 22 45 48 82 49 38 1 51 -10 23 -20 -8 -4 -15
-15 -15 -25 0 -11 -9 -27 -20 -36 -11 -10 -20 -27 -20 -39 0 -12 -7 -24 -15
-28 -8 -3 -15 -15 -15 -26 0 -11 -6 -23 -14 -26 -8 -3 -18 -19 -21 -35 -4 -16
-11 -29 -16 -29 -5 0 -12 -12 -15 -27 -4 -16 -13 -32 -19 -38 -7 -5 -20 -32
-30 -60 -10 -27 -23 -57 -29 -65 -7 -8 -23 -37 -36 -65 -13 -27 -29 -54 -37
-58 -7 -4 -13 -19 -13 -31 0 -13 -7 -26 -15 -30 -8 -3 -15 -13 -15 -22 0 -10
-7 -25 -15 -34 -9 -10 -18 -28 -20 -41 -3 -12 -11 -27 -20 -31 -8 -5 -15 -18
-15 -29 0 -11 -7 -22 -15 -25 -8 -4 -15 -14 -15 -24 0 -10 -7 -25 -15 -34 -11
-10 -15 -36 -15 -90 0 -61 3 -76 15 -76 8 0 15 -7 15 -15 0 -8 7 -15 15 -15 8
0 15 -4 15 -10 0 -6 33 -10 80 -10 47 0 80 4 80 10 0 6 9 10 20 10 11 0 20 7
20 15 0 8 4 15 9 15 12 0 79 61 235 215 134 131 183 175 197 175 5 0 9 7 9 15
0 8 5 15 11 15 6 0 25 13 42 29 126 117 153 141 160 141 4 0 7 5 7 12 0 6 21
31 48 56 108 100 171 158 190 172 21 16 119 101 158 137 13 12 24 26 24 30 0
5 15 21 33 37 17 15 67 61 110 102 42 41 81 74 86 74 5 0 11 7 15 15 3 8 12
15 21 15 8 0 15 7 15 15 0 8 4 15 10 15 11 0 38 24 230 213 83 81 157 147 165
147 8 0 15 6 15 14 0 7 11 22 25 32 23 17 25 25 25 101 0 49 -4 83 -10 83 -5
0 -10 7 -10 15 0 8 -7 15 -15 15 -8 0 -15 7 -15 15 0 13 -38 15 -280 15 -180
0 -280 4 -280 10 0 6 4 10 10 10 5 0 16 16 24 35 8 19 20 35 25 35 6 0 11 11
11 25 0 14 7 28 15 31 8 4 15 17 15 30 0 12 6 27 14 31 7 4 26 34 40 66 15 31
32 57 37 57 5 0 9 6 9 14 0 7 9 33 20 57 19 41 26 53 50 97 5 9 16 31 24 48 8
17 19 35 25 38 6 4 11 15 11 25 0 10 7 24 15 31 8 7 15 20 15 29 0 9 9 24 20
34 11 9 20 25 20 36 0 10 7 21 15 25 8 3 15 17 15 31 0 16 6 25 15 25 8 0 15
9 15 19 0 11 7 26 15 35 11 10 15 36 15 89 0 57 -4 76 -15 81 -8 3 -15 12 -15
21 0 8 -7 15 -15 15 -8 0 -15 7 -15 15 0 13 -66 15 -538 15 -526 0 -538 0
-555 20 -11 13 -17 37 -17 65 0 33 -4 45 -15 45 -8 0 -17 15 -21 38 -4 20 -13
46 -20 57 -8 11 -14 34 -14 51 0 19 -6 34 -15 38 -9 3 -15 18 -15 40 0 21 -6
36 -15 40 -9 3 -15 18 -15 38 0 22 -7 37 -20 46 -11 7 -20 21 -20 31 0 10 -7
24 -15 31 -8 7 -15 25 -15 40 0 16 -7 30 -15 34 -9 3 -15 18 -15 35 0 16 -6
31 -15 35 -8 3 -15 14 -15 25 0 11 -7 26 -15 35 -8 8 -15 22 -15 30 0 9 -9 24
-20 33 -11 10 -20 27 -20 39 0 12 -7 24 -15 28 -8 3 -15 14 -15 24 0 10 -9 27
-20 37 -11 10 -20 26 -20 35 0 9 -5 21 -11 27 -12 12 -33 46 -48 80 -5 11 -15
24 -20 28 -6 3 -11 17 -11 30 0 12 -7 25 -15 29 -8 3 -20 16 -26 28 -15 34
-35 68 -48 81 -6 6 -11 19 -11 29 0 10 -7 21 -15 24 -9 4 -25 28 -36 54 -12
27 -27 51 -35 54 -8 3 -14 14 -14 23 0 10 -13 33 -30 51 -16 18 -30 38 -30 43
0 6 -16 26 -35 46 -19 20 -35 44 -35 54 0 10 -15 33 -33 53 -19 19 -42 53 -52
76 -10 22 -24 40 -31 40 -7 0 -16 9 -19 20 -3 11 -11 20 -16 20 -5 0 -9 7 -9
15 0 9 -16 32 -35 52 -19 20 -35 43 -35 52 0 10 -18 36 -40 60 -23 24 -47 59
-55 77 -8 19 -19 34 -24 34 -6 0 -11 7 -11 15 0 8 -5 15 -11 15 -14 0 -48 41
-49 60 -1 18 -45 70 -60 70 -5 0 -10 7 -10 15 0 9 -7 18 -15 21 -8 4 -15 14
-15 23 0 10 -22 42 -50 71 -27 29 -50 59 -50 66 0 7 -22 36 -50 65 -27 28 -47
56 -44 60 3 5 -2 9 -10 9 -9 0 -16 5 -16 10 0 17 -173 12 -187 -5z m148 -427
c21 -23 39 -48 39 -54 0 -7 20 -34 45 -60 25 -25 45 -54 45 -63 1 -18 44 -71
59 -71 5 0 13 -9 16 -20 3 -11 11 -20 16 -20 5 0 9 -7 9 -15 0 -9 16 -32 35
-52 19 -20 35 -42 35 -50 0 -15 5 -22 58 -80 17 -20 32 -41 32 -47 0 -7 16
-29 35 -50 19 -21 35 -46 35 -55 0 -9 15 -32 34 -51 18 -19 36 -45 40 -56 4
-12 18 -34 32 -49 14 -15 30 -37 35 -49 20 -43 37 -67 45 -64 5 2 10 -7 12
-19 2 -13 7 -23 12 -23 11 0 50 -67 50 -86 0 -8 7 -17 15 -20 9 -4 25 -27 37
-53 11 -25 27 -50 34 -54 8 -4 14 -17 14 -27 0 -10 6 -23 14 -27 7 -4 24 -30
36 -58 12 -27 29 -54 36 -58 8 -4 14 -19 14 -32 0 -16 6 -25 15 -25 9 0 15 -9
15 -25 0 -13 6 -28 14 -32 7 -4 26 -33 40 -63 15 -30 38 -75 51 -100 13 -25
40 -81 60 -125 21 -44 44 -92 51 -107 8 -14 14 -38 14 -52 0 -15 7 -29 15 -32
9 -4 15 -19 15 -40 0 -21 6 -37 17 -43 15 -8 19 -20 22 -79 1 -7 5 -11 10 -8
12 8 21 -18 21 -60 0 -24 5 -34 15 -34 11 0 15 -12 15 -50 0 -34 5 -52 14 -56
15 -6 28 -79 19 -112 -3 -12 -12 -22 -19 -22 -9 0 -14 -11 -14 -29 0 -16 -7
-36 -15 -45 -8 -8 -15 -28 -15 -44 0 -16 -7 -35 -15 -42 -8 -7 -15 -21 -15
-31 0 -11 -9 -27 -20 -36 -11 -10 -20 -30 -20 -46 0 -15 -7 -30 -15 -33 -9 -4
-15 -19 -15 -39 0 -18 -7 -38 -15 -45 -8 -7 -15 -23 -15 -36 0 -13 -9 -28 -20
-34 -13 -7 -20 -21 -20 -43 0 -18 -7 -41 -15 -51 -8 -11 -15 -30 -15 -42 0
-12 -7 -27 -15 -34 -8 -7 -15 -23 -15 -36 0 -15 -6 -24 -15 -24 -10 0 -15 -10
-15 -34 0 -19 -7 -41 -15 -50 -8 -8 -15 -21 -15 -29 0 -26 -12 -47 -26 -47 -9
0 -14 -11 -14 -29 0 -16 -7 -36 -15 -45 -8 -8 -15 -28 -15 -44 0 -16 -7 -35
-15 -42 -8 -7 -15 -21 -15 -31 0 -11 -9 -27 -20 -36 -12 -11 -20 -30 -20 -50
0 -23 -5 -33 -15 -33 -10 0 -15 -10 -15 -32 0 -18 -7 -42 -15 -52 -8 -11 -15
-28 -15 -38 0 -10 -6 -21 -14 -24 -8 -3 -17 -21 -20 -39 -4 -19 -13 -47 -21
-62 -8 -15 -15 -35 -15 -43 0 -8 -7 -24 -15 -34 -8 -11 -15 -28 -15 -38 0 -10
-7 -18 -15 -18 -12 0 -15 -16 -15 -85 0 -69 3 -85 15 -85 8 0 15 -7 15 -15 0
-8 6 -15 13 -15 7 0 18 -9 25 -20 11 -18 10 -20 -8 -20 -11 0 -20 -7 -20 -15
0 -9 -9 -15 -25 -15 -14 0 -29 -8 -35 -21 -7 -12 -18 -18 -26 -15 -8 3 -22 -3
-31 -14 -11 -12 -30 -20 -50 -20 -23 0 -33 -5 -33 -15 0 -11 -12 -15 -45 -15
-33 0 -45 -4 -45 -15 0 -11 -12 -15 -49 -15 -33 0 -55 -6 -66 -17 -12 -12 -40
-17 -103 -20 -52 -3 -89 -9 -94 -16 -10 -17 -276 -17 -286 0 -5 8 -44 14 -101
17 -72 3 -96 8 -103 20 -7 12 -24 16 -63 16 -42 0 -55 4 -55 15 0 11 -11 15
-40 15 -27 0 -43 5 -46 15 -4 8 -19 15 -35 15 -16 0 -32 7 -37 17 -5 9 -20 17
-33 19 -13 1 -27 3 -31 3 -5 1 -8 8 -8 16 0 9 -9 15 -24 15 -13 0 -26 7 -30
15 -3 8 -14 15 -24 15 -11 0 -25 7 -32 15 -7 8 -19 15 -26 15 -8 0 -14 6 -14
13 0 8 -11 19 -25 25 -14 6 -25 16 -25 22 0 5 -9 10 -20 10 -24 0 -250 224
-250 249 0 9 -20 38 -45 64 -24 27 -47 62 -50 78 -4 16 -13 29 -21 29 -8 0
-14 10 -14 24 0 13 -7 26 -15 30 -8 3 -15 14 -15 25 0 11 -7 27 -16 36 -9 9
-18 31 -20 48 -2 17 -11 35 -19 40 -8 4 -15 20 -15 36 0 15 -7 36 -15 47 -8
11 -15 41 -15 70 0 35 -5 54 -14 57 -10 4 -15 31 -18 102 -2 68 -7 98 -17 104
-20 13 -21 252 0 277 9 11 15 51 18 126 2 82 7 111 17 115 10 4 14 24 14 69 0
48 4 66 15 70 10 4 15 21 15 53 0 34 5 51 20 64 15 12 18 24 14 46 -5 22 -1
34 15 47 14 13 21 30 21 55 0 24 5 39 15 43 10 3 15 19 15 44 0 23 6 45 15 52
8 7 15 23 15 36 0 13 9 28 20 34 13 7 20 21 20 39 0 16 7 31 15 35 9 3 15 19
15 41 0 22 6 38 15 41 8 4 15 16 15 29 0 12 7 28 15 35 8 7 15 21 15 31 0 9 7
24 15 33 8 8 15 21 15 29 0 8 9 26 20 40 11 14 20 32 20 41 0 9 7 19 15 22 8
4 15 16 15 28 0 12 9 29 20 39 11 9 20 24 20 32 0 8 14 37 30 63 17 27 30 54
30 60 0 5 7 12 15 16 8 3 15 14 15 25 0 11 6 24 14 28 7 4 23 30 35 56 12 26
28 51 36 54 8 3 15 16 15 29 0 13 6 24 13 24 6 0 22 23 35 51 13 27 29 52 37
56 8 3 15 11 15 18 0 17 33 75 42 75 5 0 17 20 29 45 12 25 30 50 40 56 11 5
19 18 19 28 0 10 16 36 35 57 19 21 35 43 35 50 0 6 16 29 35 50 19 21 35 44
35 51 0 7 5 13 10 13 6 0 10 6 10 13 0 6 16 28 35 47 19 19 35 41 35 51 0 9
16 33 35 53 19 21 35 44 35 52 0 8 5 14 10 14 6 0 10 6 10 13 0 7 16 28 35 47
19 19 35 40 35 45 0 6 22 35 50 65 27 30 50 62 50 70 1 18 34 60 48 60 5 0 12
7 16 15 9 24 25 18 67 -27z m2389 -2518 c0 -5 -7 -10 -15 -10 -8 0 -15 -8 -15
-19 0 -10 -9 -30 -20 -44 -11 -14 -20 -32 -20 -41 0 -9 -7 -19 -15 -22 -8 -4
-15 -16 -15 -28 0 -12 -9 -29 -20 -39 -11 -9 -20 -26 -20 -37 0 -11 -4 -20 -9
-20 -5 0 -14 -13 -20 -30 -5 -16 -15 -30 -20 -30 -6 0 -11 -6 -11 -14 0 -7 -9
-33 -20 -57 -19 -41 -26 -53 -50 -96 -5 -10 -16 -32 -24 -49 -8 -17 -19 -35
-25 -38 -6 -4 -11 -15 -11 -25 0 -10 -7 -24 -15 -31 -8 -7 -15 -21 -15 -31 0
-10 -7 -22 -15 -27 -9 -4 -17 -19 -20 -32 -3 -13 -11 -28 -20 -32 -8 -5 -15
-20 -15 -32 0 -13 -7 -26 -15 -30 -8 -3 -15 -15 -15 -26 0 -11 -7 -23 -15 -26
-11 -5 -15 -24 -15 -80 0 -73 0 -74 41 -114 l42 -41 196 2 c108 1 198 -1 201
-4 3 -2 -15 -21 -40 -42 -25 -20 -46 -41 -48 -46 -2 -5 -10 -9 -17 -9 -7 0
-15 -7 -19 -15 -3 -8 -12 -15 -21 -15 -8 0 -15 -7 -15 -15 0 -8 -4 -15 -9 -15
-12 0 -84 -66 -245 -225 -150 -147 -181 -175 -196 -175 -6 0 -8 -5 -5 -10 3
-6 -1 -13 -10 -16 -20 -8 -96 -76 -187 -168 -86 -88 -102 -84 -43 9 14 22 32
54 40 72 8 17 19 34 25 38 5 3 10 15 10 26 0 10 4 19 9 19 5 0 19 19 30 43 29
60 30 168 1 197 -11 11 -24 20 -30 20 -5 0 -10 7 -10 15 0 13 -39 15 -287 16
-159 1 -291 1 -295 0 -5 0 -8 4 -8 9 0 6 4 10 9 10 5 0 12 13 16 29 3 16 13
35 21 42 8 6 14 19 14 28 0 10 7 26 15 37 8 10 15 26 15 34 0 8 9 33 20 55 11
22 19 44 20 49 0 22 35 86 46 86 14 0 24 23 24 56 0 14 7 27 15 30 9 4 15 19
15 39 0 18 7 38 15 45 8 7 15 23 15 37 0 13 6 26 14 29 8 3 17 23 21 45 4 21
11 41 16 45 5 3 9 14 9 25 0 10 9 27 20 36 11 10 20 27 20 40 0 12 7 28 15 37
8 8 15 28 15 44 0 16 7 35 15 42 8 7 15 23 15 36 0 13 9 28 20 34 14 7 20 21
20 44 0 21 6 36 15 40 9 3 15 18 15 39 0 19 6 40 14 47 8 6 16 24 18 38 2 15
8 26 15 25 7 -2 15 16 19 42 3 25 10 45 14 45 5 0 12 15 15 33 4 17 12 38 17
45 13 15 778 18 778 2z"/>
</g>
</svg>
