<?xml version="1.0" standalone="no"?>
<!DOCTYPE svg PUBLIC "-//W3C//DTD SVG 20010904//EN"
 "http://www.w3.org/TR/2001/REC-SVG-20010904/DTD/svg10.dtd">
<svg version="1.0" xmlns="http://www.w3.org/2000/svg"
 width="30.000000pt" height="30.000000pt" viewBox="0 0 30.000000 30.000000"
 preserveAspectRatio="xMidYMid meet">
<metadata>
Created by potrace 1.16, written by Peter Selinger 2001-2019
</metadata>
<g transform="translate(0.000000,30.000000) scale(0.100000,-0.100000)"
fill="#000000" stroke="none">
<path d="M86 215 c-25 -42 -46 -77 -46 -79 0 -2 16 -7 35 -10 l34 -7 -30 -51
c-16 -28 -27 -53 -24 -56 3 -3 45 33 93 81 l87 87 -35 0 -34 0 47 48 c26 26
47 51 47 55 0 4 -29 7 -64 7 l-65 0 -45 -75z"/>
</g>
</svg>
