<?xml version="1.0" standalone="no"?>
<!DOCTYPE svg PUBLIC "-//W3C//DTD SVG 20010904//EN"
 "http://www.w3.org/TR/2001/REC-SVG-20010904/DTD/svg10.dtd">
<svg version="1.0" xmlns="http://www.w3.org/2000/svg"
 width="150.000000pt" height="150.000000pt" viewBox="0 0 150.000000 150.000000"
 preserveAspectRatio="xMidYMid meet">
<metadata>
Created by potrace 1.16, written by Peter Selinger 2001-2019
</metadata>
<g transform="translate(0.000000,150.000000) scale(0.100000,-0.100000)"
fill="#000000" stroke="none">
<path d="M653 1388 c-14 -24 -89 -149 -166 -278 -77 -129 -166 -278 -198 -331
-32 -54 -62 -104 -65 -113 -6 -14 14 -16 185 -16 175 0 191 -1 191 -17 0 -10
-74 -142 -164 -293 -90 -151 -162 -277 -160 -279 5 -5 822 801 829 818 4 11
-10 12 -72 7 -43 -3 -123 -7 -178 -8 -85 -3 -100 -1 -103 13 -2 10 97 109 268
270 l271 254 -73 6 c-40 4 -178 7 -305 8 l-233 1 -27 -42z"/>
</g>
</svg>
