<?xml version="1.0" standalone="no"?>
<!DOCTYPE svg PUBLIC "-//W3C//DTD SVG 20010904//EN"
 "http://www.w3.org/TR/2001/REC-SVG-20010904/DTD/svg10.dtd">
<svg version="1.0" xmlns="http://www.w3.org/2000/svg"
 width="1000.000000pt" height="1000.000000pt" viewBox="0 0 1000.000000 1000.000000"
 preserveAspectRatio="xMidYMid meet">
<metadata>
Created by potrace 1.16, written by Peter Selinger 2001-2019
</metadata>
<g transform="translate(0.000000,1000.000000) scale(0.100000,-0.100000)"
fill="#000000" stroke="none">
<path d="M6858 8574 c-15 -8 -31 -27 -35 -42 -5 -15 -8 -116 -8 -224 0 -225 5
-241 83 -266 37 -12 46 -12 79 5 68 34 76 55 81 217 6 200 -1 251 -43 293 -28
28 -40 33 -81 33 -27 -1 -61 -7 -76 -16z"/>
<path d="M6025 8356 c-75 -32 -85 -112 -28 -214 67 -122 141 -237 168 -262 53
-50 151 -25 181 45 12 30 12 40 -2 82 -18 53 -97 198 -155 284 -50 75 -98 94
-164 65z"/>
<path d="M7743 8363 c-12 -2 -34 -18 -48 -35 -34 -41 -159 -252 -180 -306 -31
-76 0 -140 76 -162 47 -14 81 -5 117 33 34 36 126 187 174 286 27 57 29 68 19
100 -6 21 -21 47 -33 58 -23 21 -85 34 -125 26z"/>
<path d="M6810 7879 c-222 -24 -434 -119 -615 -276 -183 -158 -297 -355 -357
-615 l-22 -97 -1680 -3 c-1286 -2 -1687 -6 -1708 -15 -15 -7 -34 -25 -42 -41
-13 -26 -220 -664 -294 -907 -66 -217 -119 -387 -248 -795 -74 -234 -146 -461
-159 -505 -13 -44 -83 -269 -156 -500 -222 -708 -269 -868 -269 -910 0 -32 7
-48 30 -72 29 -30 30 -30 172 -36 79 -4 814 -7 1633 -7 l1490 0 -3 -502 -2
-503 -668 -4 -667 -4 -500 -239 c-275 -131 -509 -248 -520 -259 -15 -15 -20
-33 -20 -75 0 -50 3 -59 33 -85 l32 -29 2438 0 c2294 0 2438 1 2458 18 31 25
44 55 44 103 0 63 -36 90 -276 203 -115 55 -337 159 -492 233 l-284 134 -664
6 -664 6 0 498 0 498 1613 4 c1270 2 1620 6 1650 16 29 9 42 21 53 48 23 55
23 57 -129 538 -92 291 -117 379 -117 417 0 14 -10 45 -23 69 -22 40 -261 790
-421 1319 -35 118 -67 222 -70 230 -5 11 15 26 71 54 135 70 311 229 403 366
117 174 191 455 177 674 -11 170 -48 298 -129 458 -62 122 -114 190 -220 286
-199 180 -406 275 -660 302 -104 11 -112 11 -218 -1z m321 -270 c47 -11 132
-44 194 -75 178 -88 289 -202 386 -399 68 -137 82 -211 76 -400 -3 -128 -8
-160 -29 -220 -55 -155 -125 -261 -243 -373 -66 -63 -193 -157 -201 -150 -10
11 -54 146 -54 167 0 14 -11 46 -24 71 -13 25 -49 128 -80 230 -109 355 -119
382 -149 404 -27 20 -44 21 -477 26 -247 3 -451 7 -453 10 -12 12 37 164 80
249 108 213 246 339 463 424 177 69 331 80 511 36z m-3956 -983 c-3 -12 -25
-118 -50 -236 -25 -118 -48 -223 -51 -232 -5 -17 -30 -18 -331 -18 -274 0
-324 2 -320 14 3 8 38 123 78 256 l73 241 303 -2 c301 -2 303 -2 298 -23z
m895 3 c0 -40 -31 -444 -36 -466 l-4 -23 -345 0 c-189 0 -346 4 -349 9 -6 9
17 139 63 361 l26 125 60 6 c33 3 178 6 323 7 260 2 262 2 262 -19z m820 11
l207 0 11 -147 c7 -82 15 -194 18 -250 l7 -103 -426 0 c-400 0 -427 1 -427 18
0 33 30 407 36 451 l6 44 180 -6 c100 -4 274 -7 388 -7z m1995 -140 c26 -80
61 -191 79 -246 l32 -102 -50 -6 c-52 -6 -606 -9 -606 -3 0 5 -89 446 -95 474
-4 19 0 22 32 26 21 3 156 4 300 4 l263 -1 45 -146z m-851 -87 c26 -126 50
-238 53 -250 l5 -23 -350 0 -351 0 -5 53 c-7 59 -36 410 -36 433 0 12 48 14
318 14 l318 0 48 -227z m-3021 -530 c3 -5 -17 -111 -44 -238 -27 -126 -52
-251 -55 -277 l-7 -48 -373 0 c-206 0 -374 3 -374 6 0 8 171 547 177 557 2 4
154 7 338 7 184 0 336 -3 338 -7z m1002 -20 c-4 -22 -45 -512 -45 -535 0 -10
-407 -18 -610 -11 l-207 6 13 66 c7 36 33 162 58 279 25 117 46 215 46 217 0
3 169 5 375 5 l375 0 -5 -27z m1140 15 c3 -11 45 -514 45 -546 0 -9 -121 -12
-495 -12 l-495 0 5 38 c6 45 35 439 35 482 0 22 6 33 23 40 12 5 215 9 450 9
334 1 429 -2 432 -11z m997 -23 c4 -16 28 -133 54 -260 25 -126 49 -240 54
-252 l10 -23 -399 0 c-220 0 -406 3 -415 6 -12 5 -16 21 -16 68 0 33 -7 142
-15 241 -8 99 -15 197 -15 218 l0 37 367 -2 367 -3 8 -30z m936 -12 c7 -27 46
-151 86 -278 51 -160 70 -232 62 -237 -15 -10 -698 -10 -713 0 -7 5 -16 49
-21 105 -6 60 -15 104 -24 115 -12 13 -79 301 -78 335 0 4 152 7 338 7 l338 0
12 -47z m-3138 -786 c0 -26 -40 -524 -46 -564 l-5 -43 -459 0 c-252 0 -461 4
-464 8 -4 6 91 477 119 590 l5 22 425 0 c338 0 425 -3 425 -13z m-1105 -9 c-2
-7 -29 -134 -60 -283 -30 -148 -57 -280 -60 -292 l-5 -23 -409 0 c-224 0 -410
2 -413 5 -3 3 35 135 85 293 49 158 91 293 93 300 3 9 89 12 388 12 304 0 384
-3 381 -12z m2362 4 c9 -5 19 -94 33 -272 11 -146 22 -280 25 -297 l6 -33
-560 0 -560 0 4 48 c2 26 6 81 9 122 2 41 10 157 17 258 l13 182 500 0 c276 0
507 -4 513 -8z m1100 0 c6 -4 39 -137 73 -296 47 -226 58 -291 48 -298 -7 -4
-217 -8 -465 -8 l-453 0 0 26 c0 39 -40 546 -44 567 -4 16 21 17 412 17 230 0
422 -4 429 -8z m1062 -94 c54 -173 151 -495 151 -502 0 -3 -186 -6 -414 -6
l-413 0 -7 53 c-4 28 -13 81 -21 117 -31 138 -47 216 -52 245 -2 17 -13 65
-22 107 -10 43 -16 80 -13 83 3 3 175 5 382 5 l377 0 32 -102z m-4703 -775
c-6 -19 -111 -506 -120 -558 -3 -16 -8 -39 -10 -50 -3 -11 -12 -56 -21 -100
-9 -44 -18 -90 -21 -102 l-4 -23 -470 0 c-259 0 -470 2 -470 4 0 5 62 213 105
351 13 44 52 170 86 280 34 110 63 203 66 208 2 4 198 7 434 7 405 0 430 -1
425 -17z m1211 -65 c-20 -267 -60 -763 -61 -765 -3 -4 -1067 -6 -1071 -1 -2 2
29 160 70 351 40 191 77 364 80 384 4 21 8 45 10 53 2 8 4 25 4 38 l1 22 486
0 487 0 -6 -82z m1413 75 c0 -5 14 -194 31 -421 17 -227 29 -416 26 -419 -7
-7 -1269 -5 -1276 2 -4 5 43 677 55 793 l6 52 579 0 c319 0 579 -3 579 -7z
m1213 -33 c18 -69 136 -627 151 -714 9 -49 14 -92 12 -94 -6 -5 -1058 -3
-1064 2 -2 3 -17 170 -32 373 -16 202 -31 392 -35 421 l-5 52 482 -2 482 -3 9
-35z m1155 -127 c29 -93 88 -280 132 -418 44 -137 80 -253 80 -258 0 -4 -213
-6 -472 -5 l-473 3 -33 155 c-82 381 -140 675 -136 682 3 4 195 8 427 8 l423
0 52 -167z m-1371 -2276 c98 -46 194 -91 213 -100 32 -15 -102 -16 -1795 -16
l-1830 -1 130 59 c72 32 168 77 214 100 l85 41 1402 0 1403 0 178 -83z"/>
<path d="M5371 7705 c-41 -47 -43 -109 -6 -153 25 -30 170 -120 293 -181 56
-28 67 -30 100 -21 68 18 101 74 88 146 -6 31 -18 42 -89 88 -45 30 -125 77
-178 105 -122 65 -162 68 -208 16z"/>
<path d="M8215 7650 c-83 -49 -157 -96 -166 -102 -40 -32 -50 -89 -24 -138 36
-70 100 -78 203 -26 128 65 257 144 275 169 37 49 18 146 -34 172 -60 31 -94
21 -254 -75z"/>
<path d="M8231 6853 c-24 -29 -31 -48 -31 -79 0 -54 34 -105 79 -116 18 -5
119 -8 223 -6 l190 3 29 33 c24 27 29 41 29 85 0 47 -4 57 -33 85 l-33 32
-211 0 -212 0 -30 -37z"/>
<path d="M8049 6161 c-52 -52 -54 -103 -8 -156 35 -40 221 -154 303 -186 85
-34 151 -9 176 67 21 63 0 98 -99 162 -120 79 -266 152 -302 152 -23 0 -42
-10 -70 -39z"/>
<path d="M7539 5651 c-28 -28 -39 -47 -39 -69 0 -35 58 -152 143 -288 82 -132
141 -154 223 -82 49 43 48 98 -4 193 -92 167 -154 257 -188 271 -58 24 -92 18
-135 -25z"/>
</g>
</svg>
