<?xml version="1.0" standalone="no"?>
<!DOCTYPE svg PUBLIC "-//W3C//DTD SVG 20010904//EN"
 "http://www.w3.org/TR/2001/REC-SVG-20010904/DTD/svg10.dtd">
<svg version="1.0" xmlns="http://www.w3.org/2000/svg"
 width="1000.000000pt" height="1000.000000pt" viewBox="0 0 1000.000000 1000.000000"
 preserveAspectRatio="xMidYMid meet">
<metadata>
Created by potrace 1.16, written by Peter Selinger 2001-2019
</metadata>
<g transform="translate(0.000000,1000.000000) scale(0.100000,-0.100000)"
fill="#000000" stroke="none">
<path d="M4932 8121 c-41 -26 -42 -37 -42 -670 l0 -606 31 -38 c28 -34 34 -37
84 -37 50 0 56 3 84 37 l31 38 0 606 c0 719 7 679 -115 679 -33 0 -66 -4 -73
-9z"/>
<path d="M3986 7432 c-23 -5 -65 -51 -66 -73 0 -16 20 -65 39 -99 5 -8 14 -27
20 -42 6 -16 16 -40 22 -55 6 -16 15 -36 20 -45 5 -10 9 -24 9 -32 0 -8 10
-34 21 -58 12 -23 25 -52 29 -63 4 -11 20 -47 35 -80 15 -33 32 -70 36 -82 5
-13 13 -33 18 -45 34 -91 59 -117 108 -118 42 0 93 50 93 91 0 16 -4 29 -10
29 -5 0 -10 9 -10 20 0 11 -4 28 -9 38 -5 9 -17 34 -25 54 -9 20 -21 40 -26
43 -6 3 -10 17 -10 30 0 13 -4 27 -10 30 -5 3 -10 15 -10 26 0 10 -4 19 -10
19 -5 0 -10 9 -10 20 0 11 -4 29 -10 40 -5 11 -14 29 -20 40 -5 11 -10 27 -10
35 0 8 -4 15 -10 15 -5 0 -10 8 -10 18 0 10 -7 27 -15 38 -8 10 -15 27 -15 37
0 9 -4 17 -8 17 -5 0 -14 22 -22 49 -22 81 -68 116 -134 103z"/>
<path d="M5958 7411 c-10 -10 -18 -23 -18 -29 0 -7 -4 -12 -10 -12 -5 0 -10
-11 -10 -25 0 -14 -4 -25 -10 -25 -5 0 -10 -6 -10 -13 0 -7 -9 -33 -21 -58
-11 -24 -32 -69 -46 -99 -14 -30 -29 -63 -34 -72 -5 -10 -9 -27 -9 -38 0 -11
-4 -20 -10 -20 -5 0 -10 -7 -10 -15 0 -8 -4 -23 -9 -33 -5 -9 -14 -30 -21 -47
-7 -16 -16 -38 -21 -47 -5 -10 -9 -24 -9 -32 0 -8 -7 -16 -15 -20 -8 -3 -15
-14 -15 -25 0 -11 -4 -23 -10 -26 -5 -3 -10 -24 -10 -46 0 -55 34 -89 89 -89
45 0 81 24 81 52 0 10 5 18 10 18 6 0 10 9 10 19 0 11 5 23 10 26 6 3 10 17
10 31 0 13 5 24 10 24 6 0 10 8 10 19 0 10 7 24 15 31 8 7 15 23 15 36 0 13 5
24 10 24 6 0 10 9 10 19 0 11 5 23 10 26 6 3 10 15 10 26 0 10 5 19 10 19 6 0
10 11 10 24 0 14 5 28 10 31 6 3 10 15 10 26 0 10 5 19 10 19 6 0 10 6 10 13
0 7 8 31 19 53 10 21 26 57 36 79 9 22 21 48 26 57 15 30 10 53 -19 86 -23 26
-36 32 -68 31 -23 0 -46 -7 -56 -18z"/>
<path d="M2788 7232 c-24 -23 -28 -35 -28 -82 l0 -55 299 -300 c164 -165 357
-360 429 -432 71 -73 137 -133 145 -133 9 0 19 -4 22 -10 3 -5 15 -10 26 -10
10 0 19 5 19 10 0 6 8 10 18 10 10 0 31 13 45 30 21 23 27 40 27 78 l0 48
-177 177 c-98 97 -295 294 -437 437 l-260 260 -50 -1 c-41 0 -56 -5 -78 -27z"/>
<path d="M6813 6947 c-161 -160 -356 -353 -433 -427 -77 -74 -140 -143 -140
-152 0 -9 -4 -20 -10 -23 -15 -10 -12 -35 5 -35 9 0 15 -9 15 -23 0 -36 52
-77 97 -77 21 0 47 7 58 16 11 8 210 204 443 436 l422 421 0 43 c0 62 -38 99
-111 107 l-54 7 -292 -293z"/>
<path d="M4875 6451 c-11 -5 -46 -10 -77 -10 -31 -1 -60 -5 -63 -11 -3 -5 -26
-10 -50 -10 -24 0 -47 -4 -50 -10 -3 -5 -22 -10 -41 -10 -19 0 -34 -4 -34 -10
0 -5 -13 -10 -30 -10 -16 0 -30 -4 -30 -10 0 -5 -8 -10 -19 -10 -20 0 -204
-90 -209 -102 -2 -5 -8 -8 -13 -8 -14 0 -119 -72 -119 -81 0 -5 -6 -9 -13 -9
-25 0 -224 -192 -264 -255 -15 -22 -33 -47 -42 -55 -21 -19 -71 -97 -71 -109
0 -5 -3 -11 -8 -13 -4 -1 -29 -48 -55 -103 -27 -55 -53 -108 -58 -117 -5 -10
-9 -27 -9 -37 0 -11 -4 -23 -10 -26 -5 -3 -10 -21 -10 -40 0 -19 -4 -37 -10
-40 -5 -3 -10 -24 -10 -45 0 -21 -4 -41 -9 -44 -23 -14 -32 -340 -13 -471 6
-44 14 -100 18 -125 3 -25 10 -49 15 -54 5 -6 9 -25 9 -42 0 -18 5 -36 10 -39
6 -3 10 -15 10 -26 0 -10 4 -27 9 -37 5 -9 31 -62 57 -117 27 -55 52 -101 56
-103 5 -2 8 -8 8 -13 0 -14 51 -89 83 -123 15 -16 27 -34 27 -40 0 -6 39 -50
88 -98 126 -125 140 -138 152 -138 5 0 10 -4 10 -10 0 -5 5 -10 10 -10 6 0 21
-11 34 -25 13 -14 28 -25 35 -25 6 0 11 -3 11 -8 0 -4 15 -13 33 -21 17 -8 34
-17 37 -20 11 -13 196 -101 213 -101 9 0 17 -4 17 -10 0 -5 13 -10 29 -10 17
0 33 -4 36 -10 3 -5 19 -10 35 -10 16 0 32 -4 35 -10 3 -5 23 -10 44 -10 20 0
41 -4 46 -9 31 -30 518 -30 550 0 5 5 28 9 52 9 24 0 43 5 43 10 0 6 18 10 40
10 22 0 40 5 40 10 0 6 14 10 30 10 17 0 30 5 30 10 0 6 11 10 25 10 14 0 25
5 25 10 0 6 7 10 15 10 20 0 85 32 85 42 0 4 6 8 13 8 18 0 67 24 67 33 0 4 5
7 10 7 15 0 120 71 120 81 0 5 7 9 15 9 8 0 15 5 15 10 0 6 5 10 11 10 16 0
186 168 229 226 21 28 45 57 52 65 8 8 23 29 33 47 11 17 23 32 27 32 4 0 8 9
8 19 0 11 4 21 8 23 8 3 76 136 77 150 0 4 6 13 13 20 6 6 12 20 12 29 0 10 5
21 10 24 6 3 10 17 10 30 0 13 5 27 10 30 6 3 10 21 10 40 0 19 5 37 10 40 6
3 10 26 10 50 0 24 4 46 8 49 11 7 26 164 25 271 0 105 -14 244 -24 251 -5 3
-9 24 -9 48 0 23 -5 47 -11 53 -5 5 -11 21 -13 34 -1 13 -8 35 -15 47 -7 13
-10 26 -7 29 3 3 -1 18 -8 32 -7 14 -18 37 -24 51 -27 68 -100 209 -136 262
-23 33 -48 73 -57 89 -18 32 -185 209 -197 209 -4 0 -14 9 -22 20 -8 11 -20
20 -27 20 -7 0 -13 5 -13 10 0 6 -5 10 -10 10 -6 0 -21 10 -33 23 -12 12 -32
28 -45 35 -12 6 -32 18 -44 25 -13 6 -25 14 -28 17 -10 11 -156 80 -168 80 -6
0 -12 5 -12 10 0 6 -11 10 -25 10 -14 0 -25 5 -25 10 0 6 -13 10 -30 10 -16 0
-30 5 -30 10 0 6 -18 10 -40 10 -22 0 -40 4 -40 9 0 24 -450 62 -495 42z m305
-231 c0 -5 24 -10 54 -10 30 0 58 -4 61 -10 3 -5 21 -10 40 -10 19 0 37 -4 40
-10 3 -5 14 -10 24 -10 10 0 39 -11 65 -25 26 -14 54 -25 62 -25 7 0 14 -4 14
-10 0 -5 9 -10 20 -10 11 0 20 -4 20 -10 0 -5 9 -10 20 -10 11 0 20 -3 20 -8
0 -4 15 -13 33 -21 17 -8 34 -17 37 -21 3 -3 23 -19 45 -35 22 -17 47 -38 56
-47 9 -10 19 -18 23 -18 4 0 18 -11 31 -24 14 -14 31 -29 38 -33 7 -4 23 -23
36 -40 12 -18 42 -55 65 -83 24 -28 53 -70 66 -95 13 -25 27 -45 32 -45 4 0 8
-9 8 -20 0 -11 5 -20 10 -20 6 0 10 -9 10 -20 0 -11 7 -23 15 -26 8 -4 12 -10
9 -15 -3 -5 2 -19 10 -31 9 -12 16 -30 16 -40 0 -10 5 -18 10 -18 6 0 10 -13
10 -29 0 -17 5 -33 10 -36 6 -3 10 -17 10 -30 0 -12 7 -26 15 -29 13 -4 14
-16 9 -56 -4 -33 -2 -59 5 -74 21 -38 3 -426 -20 -450 -5 -6 -9 -25 -9 -42 0
-18 -4 -36 -10 -39 -5 -3 -10 -19 -10 -36 0 -16 -4 -29 -10 -29 -5 0 -10 -7
-10 -16 0 -8 -11 -35 -25 -60 -14 -25 -25 -51 -25 -59 0 -8 -4 -15 -10 -15 -5
0 -10 -9 -10 -20 0 -11 -4 -20 -8 -20 -5 0 -19 -20 -31 -44 -46 -88 -255 -316
-290 -316 -5 0 -11 -4 -13 -8 -5 -13 -104 -82 -117 -82 -6 0 -11 -4 -11 -10 0
-5 -9 -10 -20 -10 -11 0 -20 -4 -20 -10 0 -5 -9 -10 -20 -10 -11 0 -20 -4 -20
-10 0 -5 -7 -10 -14 -10 -8 0 -36 -11 -62 -25 -26 -14 -55 -25 -65 -25 -10 0
-21 -4 -24 -10 -3 -5 -15 -10 -26 -10 -10 0 -19 -7 -19 -15 0 -13 -11 -14 -69
-9 -46 5 -70 3 -75 -5 -9 -14 -356 -16 -356 -1 0 6 -24 10 -54 10 -30 0 -58 5
-61 10 -3 6 -21 10 -40 10 -19 0 -37 5 -40 10 -3 6 -15 10 -25 10 -20 0 -83
30 -88 43 -2 4 -15 7 -28 7 -13 0 -24 5 -24 10 0 6 -9 10 -19 10 -11 0 -21 3
-23 8 -1 4 -25 18 -53 32 -27 14 -55 29 -61 35 -35 31 -65 55 -70 55 -2 0 -15
10 -28 23 -12 12 -35 31 -49 42 -64 47 -247 288 -247 325 0 5 -4 10 -10 10 -5
0 -10 7 -10 15 0 8 -11 34 -25 59 -14 25 -25 52 -25 60 0 9 -4 16 -10 16 -5 0
-10 13 -10 29 0 17 -4 33 -10 36 -5 3 -10 21 -10 40 0 19 -4 36 -9 39 -31 20
-32 586 0 586 5 0 9 14 9 30 0 17 5 30 10 30 6 0 10 10 10 23 0 13 9 42 20 65
11 22 20 45 20 50 0 15 31 75 56 109 13 17 24 36 24 40 0 5 7 18 15 28 8 11
25 34 38 52 74 106 208 238 282 279 17 9 32 20 35 23 3 3 19 13 35 21 17 8 32
17 35 20 3 3 41 23 85 44 44 20 88 42 97 47 10 5 27 9 38 9 11 0 20 5 20 10 0
6 16 10 35 10 19 0 35 5 35 10 0 6 28 10 65 10 37 0 65 4 65 10 0 6 65 10 175
10 110 0 175 -4 175 -10z"/>
<path d="M5840 5080 c0 -5 -6 -10 -13 -10 -20 0 -35 -38 -41 -100 -10 -108
-17 -155 -26 -175 -4 -11 -14 -41 -21 -67 -8 -27 -17 -48 -21 -48 -4 0 -8 -9
-8 -20 0 -11 -4 -20 -8 -20 -5 0 -16 -18 -26 -40 -10 -22 -22 -40 -27 -40 -5
0 -9 -6 -9 -13 0 -7 -9 -19 -20 -27 -11 -8 -20 -18 -20 -23 0 -20 -155 -156
-177 -157 -7 0 -13 -4 -13 -8 0 -5 -16 -15 -35 -22 -20 -8 -41 -20 -47 -27 -6
-7 -21 -13 -34 -13 -12 0 -26 -4 -29 -10 -3 -5 -16 -10 -29 -10 -12 0 -26 -4
-32 -9 -5 -5 -34 -12 -64 -15 -135 -16 -185 -17 -224 -7 -64 18 -161 18 -178
0 -35 -35 -33 -127 3 -136 11 -3 19 -9 19 -14 0 -5 18 -9 39 -9 22 0 43 -4 46
-10 4 -6 68 -10 160 -10 92 0 156 4 160 10 3 6 24 10 45 10 21 0 42 5 45 10 3
6 17 10 29 10 13 0 29 7 36 15 7 8 19 15 28 15 23 0 82 23 82 32 0 4 8 8 18 8
9 0 28 9 42 20 14 11 30 20 37 20 6 0 13 3 15 8 2 4 21 20 43 37 22 16 53 41
69 55 32 28 145 164 162 195 54 98 74 140 74 155 0 10 7 23 15 30 8 7 15 25
15 41 0 15 5 31 10 34 6 3 10 26 10 51 0 24 5 44 10 44 6 0 10 39 10 97 l0 97
-32 28 c-32 27 -88 39 -88 18z"/>
<path d="M2603 6074 c-28 -22 -33 -32 -33 -68 0 -42 21 -76 48 -76 7 0 12 -4
12 -10 0 -5 11 -10 25 -10 14 0 25 -4 25 -10 0 -5 6 -10 14 -10 12 0 69 -25
138 -61 10 -5 25 -9 33 -9 8 0 15 -4 15 -10 0 -5 9 -10 19 -10 11 0 23 -4 26
-10 3 -5 17 -10 31 -10 13 0 24 -4 24 -10 0 -5 11 -10 25 -10 14 0 25 -4 25
-10 0 -5 7 -10 15 -10 14 0 35 -9 75 -32 8 -4 22 -11 30 -14 8 -3 23 -10 32
-15 10 -5 25 -9 33 -9 8 0 15 -4 15 -10 0 -5 19 -10 43 -10 34 0 48 6 65 25
40 46 22 145 -26 145 -6 0 -27 9 -47 20 -20 11 -42 20 -51 20 -8 0 -32 11 -54
25 -22 14 -44 25 -50 25 -6 0 -18 4 -28 9 -9 5 -29 14 -44 20 -16 6 -40 16
-55 22 -16 7 -39 16 -53 22 -14 5 -33 13 -42 18 -10 5 -25 9 -33 9 -8 0 -15 4
-15 8 0 10 -71 42 -93 42 -10 0 -17 5 -17 10 0 6 -9 10 -19 10 -11 0 -23 5
-26 10 -11 18 -49 10 -82 -16z"/>
<path d="M7330 6070 c-8 -4 -33 -16 -55 -25 -22 -10 -58 -26 -79 -36 -22 -11
-46 -19 -53 -19 -7 0 -13 -4 -13 -10 0 -5 -9 -10 -20 -10 -11 0 -30 -5 -43
-12 -47 -24 -57 -28 -72 -28 -8 0 -15 -4 -15 -10 0 -5 -9 -10 -19 -10 -21 0
-84 -30 -89 -42 -2 -5 -12 -8 -23 -8 -11 0 -27 -4 -37 -9 -9 -5 -30 -15 -47
-22 -16 -8 -34 -20 -38 -26 -4 -7 -15 -13 -22 -13 -12 0 -15 -16 -15 -70 l0
-71 55 2 c31 1 58 6 61 11 3 4 18 8 35 8 16 0 29 5 29 10 0 6 6 10 13 10 6 0
35 11 62 25 28 13 58 25 68 25 9 0 17 5 17 10 0 6 11 10 24 10 14 0 28 5 31
10 3 6 15 10 26 10 10 0 19 5 19 10 0 6 11 10 25 10 14 0 25 5 25 10 0 6 11
10 25 10 14 0 25 5 25 10 0 6 8 10 19 10 10 0 24 7 31 15 7 8 20 15 30 15 19
0 97 37 116 55 35 33 22 110 -21 136 -33 20 -53 22 -75 9z"/>
<path d="M1930 5100 c0 -5 -7 -10 -16 -10 -29 0 -43 -32 -43 -95 0 -63 14 -95
43 -95 9 0 16 -4 16 -10 0 -7 212 -10 615 -10 403 0 615 3 615 10 0 6 6 10 13
10 7 0 23 11 35 25 32 36 31 113 -1 143 -13 12 -29 22 -35 22 -7 0 -12 5 -12
10 0 7 -212 10 -615 10 -403 0 -615 -3 -615 -10z"/>
<path d="M6822 5067 c-34 -34 -42 -49 -42 -77 0 -24 6 -39 20 -48 11 -7 20
-19 20 -27 0 -8 7 -15 15 -15 8 0 15 -4 15 -10 0 -7 210 -10 609 -10 396 0
612 4 616 10 3 6 13 10 21 10 32 0 44 27 44 95 0 68 -12 95 -44 95 -8 0 -18 5
-21 10 -4 7 -217 10 -608 9 l-602 -1 -43 -41z"/>
<path d="M3245 4350 c-3 -5 -17 -10 -31 -10 -13 0 -24 -4 -24 -10 0 -5 -11
-10 -25 -10 -14 0 -25 -4 -25 -10 0 -5 -6 -10 -12 -10 -7 0 -35 -11 -63 -25
-27 -13 -58 -25 -67 -25 -10 0 -18 -4 -18 -10 0 -5 -11 -10 -24 -10 -14 0 -28
-4 -31 -10 -3 -5 -15 -10 -26 -10 -10 0 -19 -4 -19 -10 0 -5 -11 -10 -25 -10
-14 0 -25 -4 -25 -10 0 -5 -11 -10 -25 -10 -14 0 -25 -4 -25 -10 0 -5 -8 -10
-19 -10 -10 0 -24 -7 -31 -15 -7 -8 -20 -15 -30 -15 -20 0 -97 -38 -118 -58
-20 -19 -20 -95 0 -115 9 -9 21 -17 27 -17 6 0 11 -4 11 -10 0 -5 14 -10 30
-10 17 0 30 5 30 10 0 6 6 10 14 10 12 0 69 25 138 61 10 5 25 9 33 9 8 0 15
5 15 10 0 6 9 10 20 10 11 0 28 4 38 9 9 5 31 14 47 21 17 7 38 16 47 21 10 5
25 9 33 9 8 0 15 4 15 9 0 5 14 12 30 16 17 4 30 11 30 16 0 5 11 9 24 9 14 0
28 5 31 10 3 6 15 10 26 10 10 0 19 5 19 10 0 6 11 10 25 10 14 0 25 5 25 10
0 6 8 10 19 10 43 0 68 94 34 128 -35 35 -86 52 -98 32z"/>
<path d="M6673 4315 c-44 -47 -23 -145 30 -145 9 0 19 -4 22 -10 3 -5 15 -10
26 -10 10 0 19 -4 19 -10 0 -5 6 -10 13 -10 14 0 48 -14 120 -51 22 -10 47
-19 58 -19 10 0 19 -4 19 -10 0 -5 9 -10 19 -10 11 0 23 -4 26 -10 3 -5 15
-10 26 -10 10 0 19 -4 19 -10 0 -5 9 -10 19 -10 11 0 52 -16 93 -36 40 -20 84
-41 98 -46 14 -6 33 -14 42 -19 29 -15 49 -10 85 17 28 21 33 31 33 68 0 45
-12 62 -60 83 -40 17 -183 84 -202 94 -10 5 -25 9 -33 9 -8 0 -15 5 -15 10 0
6 -11 10 -25 10 -14 0 -25 5 -25 10 0 6 -11 10 -24 10 -14 0 -28 5 -31 10 -3
6 -15 10 -26 10 -10 0 -19 5 -19 10 0 6 -9 10 -19 10 -11 0 -23 5 -26 10 -3 6
-17 10 -30 10 -12 0 -25 7 -29 15 -3 8 -15 15 -26 15 -11 0 -20 5 -20 10 0 6
-11 10 -25 10 -14 0 -25 5 -25 10 0 6 -19 10 -42 9 -32 0 -49 -6 -65 -24z"/>
<path d="M3620 3770 c0 -5 -6 -10 -13 -10 -7 0 -43 -30 -80 -67 -36 -38 -228
-230 -426 -427 l-361 -359 0 -54 c0 -29 4 -53 8 -53 5 0 18 -9 31 -21 25 -23
92 -32 126 -16 11 5 148 137 305 293 157 155 347 343 423 417 75 74 137 142
137 151 0 9 5 16 10 16 15 0 12 32 -5 66 -25 51 -60 74 -110 74 -25 0 -45 -4
-45 -10z"/>
<path d="M6310 3770 c0 -5 -8 -10 -18 -10 -10 0 -30 -13 -45 -28 -22 -23 -27
-38 -27 -77 0 -48 0 -48 115 -164 441 -445 740 -741 747 -741 4 0 8 -4 8 -10
0 -5 23 -10 50 -10 44 0 54 4 80 33 24 26 29 41 30 81 l0 49 -299 301 c-165
166 -358 361 -429 434 -71 72 -137 132 -145 132 -9 0 -19 5 -22 10 -3 6 -15
10 -26 10 -10 0 -19 -4 -19 -10z"/>
<path d="M4198 3331 c-10 -10 -18 -25 -18 -34 0 -10 -4 -17 -10 -17 -5 0 -10
-9 -10 -19 0 -11 -4 -23 -10 -26 -5 -3 -10 -17 -10 -31 0 -13 -4 -24 -10 -24
-5 0 -10 -8 -10 -19 0 -10 -7 -24 -15 -31 -8 -7 -15 -19 -15 -26 0 -8 -4 -22
-9 -32 -5 -9 -13 -28 -18 -42 -6 -14 -20 -45 -32 -68 -11 -24 -21 -52 -21 -63
0 -10 -4 -19 -10 -19 -5 0 -10 -6 -10 -14 0 -8 -12 -38 -26 -68 -15 -29 -31
-64 -36 -78 -6 -14 -14 -33 -19 -42 -15 -30 -10 -53 19 -86 23 -25 37 -32 67
-32 30 0 44 7 67 32 15 17 28 42 28 55 0 13 5 23 10 23 6 0 10 6 10 13 0 7 9
33 21 58 11 24 32 69 46 99 14 30 29 63 34 72 5 10 9 27 9 38 0 11 5 20 10 20
6 0 10 7 10 15 0 8 5 25 12 38 24 48 28 57 28 76 0 10 7 21 15 25 8 3 15 14
15 25 0 11 5 23 10 26 6 3 10 15 10 26 0 10 5 19 10 19 6 0 10 18 10 40 0 59
-31 90 -89 89 -30 0 -52 -6 -63 -18z"/>
<path d="M5671 3319 c-30 -30 -44 -89 -21 -89 6 0 10 -11 10 -24 0 -14 5 -28
10 -31 6 -3 10 -14 10 -24 0 -10 7 -24 15 -31 8 -6 14 -15 13 -18 -1 -7 16
-51 33 -84 5 -10 9 -25 9 -33 0 -8 5 -15 10 -15 6 0 10 -9 10 -20 0 -11 5 -29
10 -40 6 -11 15 -29 20 -40 6 -11 10 -27 10 -35 0 -8 5 -15 10 -15 6 0 10 -11
10 -24 0 -13 7 -29 15 -36 8 -7 13 -16 10 -20 -3 -5 2 -15 10 -23 8 -9 15 -25
15 -36 0 -11 5 -23 10 -26 6 -3 10 -14 10 -24 0 -10 12 -30 26 -45 22 -21 36
-26 76 -26 44 0 50 3 59 28 13 34 4 98 -21 151 -11 22 -20 49 -20 60 0 11 -4
23 -10 26 -5 3 -10 17 -10 31 0 13 -4 24 -10 24 -5 0 -10 7 -10 15 0 8 -4 23
-9 33 -8 16 -18 40 -40 95 -5 12 -21 49 -36 82 -15 33 -31 69 -35 80 -35 95
-61 145 -75 145 -8 0 -15 5 -15 10 0 6 -15 10 -34 10 -25 0 -43 -8 -65 -31z"/>
<path d="M4936 3205 c-46 -35 -46 -31 -46 -676 0 -399 3 -609 10 -609 6 0 10
-8 10 -18 0 -32 22 -42 95 -42 73 0 95 10 95 42 0 10 5 18 10 18 7 0 10 211
10 614 l0 613 -33 37 c-30 32 -39 36 -83 36 -27 0 -57 -7 -68 -15z"/>
</g>
</svg>
