<?xml version="1.0" standalone="no"?>
<!DOCTYPE svg PUBLIC "-//W3C//DTD SVG 20010904//EN"
 "http://www.w3.org/TR/2001/REC-SVG-20010904/DTD/svg10.dtd">
<svg version="1.0" xmlns="http://www.w3.org/2000/svg"
 width="1000.000000pt" height="1000.000000pt" viewBox="0 0 1000.000000 1000.000000"
 preserveAspectRatio="xMidYMid meet">
<metadata>
Created by potrace 1.16, written by Peter Selinger 2001-2019
</metadata>
<g transform="translate(0.000000,1000.000000) scale(0.100000,-0.100000)"
fill="#000000" stroke="none">
<path d="M4355 5734 c-91 -47 -129 -148 -90 -242 10 -22 82 -103 184 -207 105
-105 167 -175 163 -184 -3 -10 0 -12 10 -8 22 8 113 -86 102 -105 -5 -7 -9
-16 -9 -19 0 -4 -94 -97 -210 -208 -120 -115 -220 -219 -232 -243 -60 -109 11
-252 131 -265 100 -12 101 -11 359 245 l237 236 228 -226 c125 -124 241 -233
259 -242 37 -18 109 -21 150 -5 34 13 80 55 99 91 17 32 18 115 3 155 -5 15
-114 133 -242 261 l-231 232 231 233 c128 127 237 245 242 260 15 40 14 123
-3 155 -19 36 -65 78 -99 91 -41 16 -113 13 -150 -5 -18 -9 -134 -118 -260
-242 l-227 -226 -233 231 c-127 128 -245 237 -260 242 -41 16 -117 13 -152 -5z"/>
</g>
</svg>
